<svg width="130" height="24" viewBox="0 0 130 24" fill="none" xmlns="http://www.w3.org/2000/svg">
<g clip-path="url(#clip0)">
<path d="M74.1607 23.9096C73.1786 23.9157 72.2077 23.7009 71.3196 23.2808C70.438 22.8634 69.6545 22.2637 69.0207 21.5212V23.4517H64.7869V0.546967H69.0207V10.5901C69.6111 9.87675 70.3591 9.31109 71.2056 8.93799C72.0984 8.53862 73.0662 8.33599 74.0438 8.34377C75.4532 8.34377 76.7096 8.68488 77.813 9.36709C78.9107 10.0435 79.8077 11.0021 80.4108 12.1433C81.0392 13.3106 81.3533 14.6386 81.3533 16.1271C81.3533 17.6439 81.0296 18.9878 80.3821 20.159C79.7738 21.293 78.8756 22.2445 77.7795 22.916C76.6891 23.5784 75.4357 23.9225 74.1607 23.9096ZM73.3733 20.1753C74.0841 20.1911 74.7856 20.0107 75.4011 19.654C75.9778 19.309 76.451 18.8146 76.7709 18.2227C77.1021 17.5788 77.2738 16.8643 77.2713 16.1398C77.2688 15.4153 77.0922 14.702 76.7565 14.0603C76.4311 13.4623 75.9536 12.9611 75.3724 12.6079C74.7682 12.2483 74.0759 12.0647 73.3733 12.078C72.6646 12.0665 71.9662 12.2498 71.3541 12.6079C70.7655 12.9535 70.28 13.4507 69.9479 14.0479C69.5966 14.6921 69.4192 15.4171 69.4336 16.1511C69.4208 16.8724 69.5954 17.5847 69.9403 18.2179C70.2683 18.8136 70.7521 19.3084 71.3397 19.6492C71.958 20.0048 72.6606 20.1865 73.3733 20.1753Z" fill="black"/>
<path d="M106.621 12.0772C105.067 12.0772 103.442 12.9844 103.442 15.4851V23.4527H99.2081V8.80181H103.442V10.4337C104.03 9.78519 104.748 9.26835 105.549 8.917C106.401 8.52691 107.329 8.33024 108.266 8.34103C109.388 8.34103 110.301 8.58774 111.153 9.07828C111.997 9.56163 112.691 10.2697 113.159 11.124C113.645 11.9969 113.888 13.0151 113.888 14.1786V23.4518H109.654V15.4841C109.652 12.9844 108.175 12.0772 106.621 12.0772Z" fill="black"/>
<path d="M84.0353 23.4517V0.546967H88.2844V23.4517H84.0353Z" fill="black"/>
<path d="M93.7607 5.76C93.301 5.76344 92.8492 5.6406 92.4542 5.40481C92.0622 5.17375 91.7355 4.84633 91.5049 4.45349C91.268 4.05577 91.1445 3.60057 91.1477 3.13739C91.1429 2.67823 91.2667 2.22694 91.5049 1.83472C91.7385 1.44798 92.0648 1.1259 92.4542 0.897795C92.8498 0.664146 93.3015 0.543008 93.7607 0.547409C94.2176 0.5426 94.6669 0.663817 95.0596 0.897795C95.445 1.12614 95.7666 1.44843 95.9945 1.83472C96.2289 2.22826 96.3502 2.67908 96.3451 3.13739C96.3487 3.59974 96.2276 4.05449 95.9945 4.45349C95.7695 4.8458 95.4476 5.17344 95.0596 5.40481C94.6677 5.64112 94.2181 5.76406 93.7607 5.76Z" fill="black"/>
<path d="M95.8631 8.80154H91.6293V23.4515H95.8631V8.80154Z" fill="black"/>
<path d="M117.052 23.4517V0.546967H121.286V14.0824L124.988 8.80264H129.93L124.936 15.9851L130.005 23.4526H125.062L121.286 17.8848V23.4526L117.052 23.4517Z" fill="black"/>
<path d="M3.58533 24L15.5597 11.9995L3.58533 0L0 3.59314L8.38812 11.9995L0 20.4059L3.58533 24Z" fill="#FAB412"/>
<path d="M34.5477 0.00613403C36.9149 0.00613404 39.229 0.709636 41.1972 2.02768C43.1655 3.34571 44.6995 5.21909 45.6054 7.4109C46.5112 9.6027 46.7482 12.0145 46.2863 14.3413C45.8244 16.668 44.6844 18.8053 43.0105 20.4827C41.3365 22.1602 39.2038 23.3025 36.8821 23.7652C34.5603 24.2279 32.1538 23.9903 29.9668 23.0823C27.7799 22.1743 25.9107 20.6367 24.5957 18.6641C23.2806 16.6914 22.5789 14.3723 22.579 11.9999C22.5826 8.81988 23.8447 5.77114 26.0886 3.52261C28.3324 1.27409 31.3746 0.00943715 34.5477 0.00613403ZM27.8406 11.9999C27.8406 13.3289 28.2339 14.6281 28.9707 15.7332C29.7074 16.8382 30.7546 17.6995 31.9798 18.2081C33.205 18.7167 34.5532 18.8498 35.8539 18.5905C37.1545 18.3312 38.3493 17.6912 39.287 16.7515C40.2247 15.8117 40.8633 14.6143 41.1221 13.3108C41.3808 12.0073 41.248 10.6562 40.7405 9.42836C40.233 8.20049 39.3736 7.15102 38.2709 6.41264C37.1683 5.67427 35.8719 5.28016 34.5458 5.28016C32.7682 5.2827 31.0642 5.99149 29.8073 7.25113C28.5504 8.51078 27.8432 10.2185 27.8406 11.9999Z" fill="#FAB412"/>
</g>
<defs>
<clipPath id="clip0">
<rect width="130" height="24" fill="white"/>
</clipPath>
</defs>
</svg>
