<svg width="14" height="19" viewBox="0 0 14 19" fill="none" xmlns="http://www.w3.org/2000/svg">
<path fill-rule="evenodd" clip-rule="evenodd" d="M0.119995 6.94433C0.171429 3.19802 3.24865 0.201932 6.995 0.250584C10.7413 0.201932 13.8186 3.19802 13.87 6.94433C13.8684 8.39907 13.3849 9.81228 12.495 10.9631L6.995 19.0006L1.495 10.9631C0.605102 9.81228 0.121575 8.39907 0.119995 6.94433ZM12.62 6.94433C12.5618 3.89131 10.0483 1.45877 6.995 1.50058C3.9417 1.45877 1.42817 3.89131 1.37 6.94433C1.36909 8.14569 1.77684 9.31163 2.52625 10.2506L6.995 16.7881L11.5012 10.2006C12.2266 9.27015 12.6203 8.12409 12.62 6.94433ZM7 5.25C8.03553 5.25 8.875 6.08947 8.875 7.125C8.875 8.16053 8.03553 9 7 9C5.96446 9 5.125 8.16053 5.125 7.125C5.125 6.08947 5.96446 5.25 7 5.25ZM3.875 7.125C3.875 5.39911 5.27411 4 7 4C8.72589 4 10.125 5.39911 10.125 7.125C10.125 8.85089 8.72589 10.25 7 10.25C5.27411 10.25 3.875 8.85089 3.875 7.125Z" fill="#454F5B"/>
</svg>
